<mxfile host="app.diagrams.net" modified="2024-02-09T09:49:41.268Z" agent="Mozilla/5.0 (Macintosh; Intel Mac OS X 10_15_7) AppleWebKit/537.36 (KHTML, like Gecko) Chrome/118.0.0.0 Safari/537.36" version="22.1.20" etag="ND8WTgxeQxpOgyRb5vX-" type="github">
  <diagram name="Sida-1" id="5LJZwWcBvunNm1jCGxry">
    <mxGraphModel>
      <root>
        <mxCell id="0" />
        <mxCell id="1" parent="0" />
      </root>
    </mxGraphModel>
  </diagram>
</mxfile>
